# xmcd
#
# Track frame offsets: 
#        150
#        23933
#        46386
#        59308
#        74082
#        85654
#        100599
#        115365
#        130339
#        144416
#
# Disc length: 2153 seconds
#
# Revision: 0
# Processed by: cddbd v1.5.2PL0 Copyright (c) Steve Scherf et al.
# Submitted via: ExactAudioCopy v0.99pb4
#
DISCID=8b08670a
DTITLE=Various Artist - Nova 24h - CD 15 - Il est presque 2h
DYEAR=2009
DGENRE=
TTITLE0=Nina Simone - Funkier Than A Mosquito's Tweeter
TTITLE1=Arthur H - Quai N°3
TTITLE2=Little Beaver - Do Right Man
TTITLE3=People Under The Stairs - I-15
TTITLE4=Los Zafiros - Bossa Cubana
TTITLE5=Hirut Bèqèlè - Almokèrkum Nèbèr
TTITLE6=Rjd2 - Have Mercy
TTITLE7=Wayne Smith - Under Me Sleng Teng
TTITLE8=Kid Loco - Confessions
TTITLE9=Roy Ayers - Hummin'
EXTD=
EXTT0=
EXTT1=
EXTT2=
EXTT3=
EXTT4=
EXTT5=
EXTT6=
EXTT7=
EXTT8=
EXTT9=
PLAYORDER=
